HIERARCHY
ROOT Hips
{
    OFFSET   0.000000   0.000000   0.000000
    CHANNELS 6 Xposition Yposition Zposition Zrotation Xrotation Yrotation
    JOINT Chest
    {
        OFFSET   0.000000   8.007230   0.000000
        CHANNELS 3 Zrotation Xrotation Yrotation
        JOINT Chest2
        {
            OFFSET   0.000000  22.077100   0.000000
            CHANNELS 3 Zrotation Xrotation Yrotation
            JOINT Neck
            {
                OFFSET   0.000000  23.255100   0.000000
                CHANNELS 3 Zrotation Xrotation Yrotation
                JOINT Head
                {
                    OFFSET   0.000000  14.370100   1.956600
                    CHANNELS 3 Zrotation Xrotation Yrotation
                    End Site
                    {
                        OFFSET   0.000000  19.566000   0.000000
                    }
                }
            }
            JOINT LeftCollar
            {
                OFFSET   3.911900  19.017000  -0.467063
                CHANNELS 3 Zrotation Xrotation Yrotation
                JOINT LeftShoulder
                {
                    OFFSET  10.383700   0.000000   0.000000
                    CHANNELS 3 Zrotation Xrotation Yrotation
                    JOINT LeftElbow
                    {
                        OFFSET  26.662100   0.001193   0.000980
                        CHANNELS 3 Zrotation Xrotation Yrotation
                        JOINT LeftWrist
                        {
                            OFFSET  28.869000  -0.000059  -0.000082
                            CHANNELS 3 Zrotation Xrotation Yrotation
                            JOINT LeftFinger0
                            {
                                OFFSET   2.044650  -2.323450   3.252850
                                CHANNELS 3 Zrotation Xrotation Yrotation
                                JOINT LeftFinger01
                                {
                                    OFFSET   3.088130   0.000000   0.000000
                                    CHANNELS 3 Zrotation Xrotation Yrotation
                                    JOINT LeftFinger02
                                    {
                                        OFFSET   2.639460   0.000000   0.000000
                                        CHANNELS 3 Zrotation Xrotation Yrotation
                                        End Site
                                        {
                                            OFFSET   2.582190   0.000000   0.000000
                                        }
                                    }
                                }
                            }
                            JOINT LeftFinger1
                            {
                                OFFSET   8.364480   0.000000   3.252850
                                CHANNELS 3 Zrotation Xrotation Yrotation
                                JOINT LeftFinger11
                                {
                                    OFFSET   4.646930   0.000000   0.000000
                                    CHANNELS 3 Zrotation Xrotation Yrotation
                                    JOINT LeftFinger12
                                    {
                                        OFFSET   2.323470   0.000000   0.000000
                                        CHANNELS 3 Zrotation Xrotation Yrotation
                                        End Site
                                        {
                                            OFFSET   2.273050   0.000000   0.000000
                                        }
                                    }
                                }
                            }
                            JOINT LeftFinger2
                            {
                                OFFSET   8.364490   0.000016   1.078090
                                CHANNELS 3 Zrotation Xrotation Yrotation
                                JOINT LeftFinger21
                                {
                                    OFFSET   5.111610   0.000000   0.000000
                                    CHANNELS 3 Zrotation Xrotation Yrotation
                                    JOINT LeftFinger22
                                    {
                                        OFFSET   2.788150   0.000016   0.000000
                                        CHANNELS 3 Zrotation Xrotation Yrotation
                                        End Site
                                        {
                                            OFFSET   2.727660   0.000000   0.000000
                                        }
                                    }
                                }
                            }
                            JOINT LeftFinger3
                            {
                                OFFSET   7.899780   0.000015  -1.078090
                                CHANNELS 3 Zrotation Xrotation Yrotation
                                JOINT LeftFinger31
                                {
                                    OFFSET   4.646930   0.000000   0.000000
                                    CHANNELS 3 Zrotation Xrotation Yrotation
                                    JOINT LeftFinger32
                                    {
                                        OFFSET   2.323470   0.000000   0.000000
                                        CHANNELS 3 Zrotation Xrotation Yrotation
                                        End Site
                                        {
                                            OFFSET   2.273050   0.000000   0.000000
                                        }
                                    }
                                }
                            }
                            JOINT LeftFinger4
                            {
                                OFFSET   7.435090   0.000000  -3.252850
                                CHANNELS 3 Zrotation Xrotation Yrotation
                                JOINT LeftFinger41
                                {
                                    OFFSET   3.717550   0.000000   0.000000
                                    CHANNELS 3 Zrotation Xrotation Yrotation
                                    JOINT LeftFinger42
                                    {
                                        OFFSET   1.858770   0.000000   0.000000
                                        CHANNELS 3 Zrotation Xrotation Yrotation
                                        End Site
                                        {
                                            OFFSET   1.818440   0.000000   0.000000
                                        }
                                    }
                                }
                            }
                        }
                    }
                }
            }
            JOINT RightCollar
            {
                OFFSET  -3.911910  19.017000  -0.467062
                CHANNELS 3 Zrotation Xrotation Yrotation
                JOINT RightShoulder
                {
                    OFFSET -10.383700   0.000014   0.000000
                    CHANNELS 3 Zrotation Xrotation Yrotation
                    JOINT RightElbow
                    {
                        OFFSET -26.662100   0.001225   0.001091
                        CHANNELS 3 Zrotation Xrotation Yrotation
                        JOINT RightWrist
                        {
                            OFFSET -28.869000  -0.000020  -0.000085
                            CHANNELS 3 Zrotation Xrotation Yrotation
                            JOINT RightFinger0
                            {
                                OFFSET  -2.044650  -2.323490   3.252850
                                CHANNELS 3 Zrotation Xrotation Yrotation
                                JOINT RightFinger01
                                {
                                    OFFSET  -3.088130   0.000000   0.000000
                                    CHANNELS 3 Zrotation Xrotation Yrotation
                                    JOINT RightFinger02
                                    {
                                        OFFSET  -2.639460   0.000000   0.000000
                                        CHANNELS 3 Zrotation Xrotation Yrotation
                                        End Site
                                        {
                                            OFFSET  -2.582190   0.000000   0.000000
                                        }
                                    }
                                }
                            }
                            JOINT RightFinger1
                            {
                                OFFSET  -8.364480   0.000000   3.252850
                                CHANNELS 3 Zrotation Xrotation Yrotation
                                JOINT RightFinger11
                                {
                                    OFFSET  -4.646930   0.000000   0.000000
                                    CHANNELS 3 Zrotation Xrotation Yrotation
                                    JOINT RightFinger12
                                    {
                                        OFFSET  -2.323470   0.000000   0.000000
                                        CHANNELS 3 Zrotation Xrotation Yrotation
                                        End Site
                                        {
                                            OFFSET  -2.273050   0.000000   0.000000
                                        }
                                    }
                                }
                            }
                            JOINT RightFinger2
                            {
                                OFFSET  -8.364480   0.000000   1.078090
                                CHANNELS 3 Zrotation Xrotation Yrotation
                                JOINT RightFinger21
                                {
                                    OFFSET  -5.111620   0.000000   0.000000
                                    CHANNELS 3 Zrotation Xrotation Yrotation
                                    JOINT RightFinger22
                                    {
                                        OFFSET  -2.788160   0.000000   0.000000
                                        CHANNELS 3 Zrotation Xrotation Yrotation
                                        End Site
                                        {
                                            OFFSET  -2.727660   0.000000   0.000000
                                        }
                                    }
                                }
                            }
                            JOINT RightFinger3
                            {
                                OFFSET  -7.899780   0.000000  -1.078090
                                CHANNELS 3 Zrotation Xrotation Yrotation
                                JOINT RightFinger31
                                {
                                    OFFSET  -4.646930   0.000000   0.000000
                                    CHANNELS 3 Zrotation Xrotation Yrotation
                                    JOINT RightFinger32
                                    {
                                        OFFSET  -2.323470   0.000000   0.000000
                                        CHANNELS 3 Zrotation Xrotation Yrotation
                                        End Site
                                        {
                                            OFFSET  -2.273050   0.000000   0.000000
                                        }
                                    }
                                }
                            }
                            JOINT RightFinger4
                            {
                                OFFSET  -7.435090   0.000000  -3.252850
                                CHANNELS 3 Zrotation Xrotation Yrotation
                                JOINT RightFinger41
                                {
                                    OFFSET  -3.717550   0.000000   0.000000
                                    CHANNELS 3 Zrotation Xrotation Yrotation
                                    JOINT RightFinger42
                                    {
                                        OFFSET  -1.858760   0.000000   0.000000
                                        CHANNELS 3 Zrotation Xrotation Yrotation
                                        End Site
                                        {
                                            OFFSET  -1.818440   0.000000   0.000000
                                        }
                                    }
                                }
                            }
                        }
                    }
                }
            }
        }
    }
    JOINT LeftHip
    {
        OFFSET   9.783030   0.000000   0.000000
        CHANNELS 3 Zrotation Xrotation Yrotation
        JOINT LeftKnee
        {
            OFFSET   0.000063 -41.789100   0.000608
            CHANNELS 3 Zrotation Xrotation Yrotation
            JOINT LeftAnkle
            {
                OFFSET   0.000048 -41.133200  -0.000184
                CHANNELS 3 Zrotation Xrotation Yrotation
                JOINT LeftToe
                {
                    OFFSET   0.000000  -6.358960  14.674500
                    CHANNELS 3 Zrotation Xrotation Yrotation
                    End Site
                    {
                        OFFSET   0.000000   0.000000   3.913200
                    }
                }
            }
        }
    }
    JOINT RightHip
    {
        OFFSET  -9.783030   0.000000   0.000000
        CHANNELS 3 Zrotation Xrotation Yrotation
        JOINT RightKnee
        {
            OFFSET   0.000071 -41.789100   0.001239
            CHANNELS 3 Zrotation Xrotation Yrotation
            JOINT RightAnkle
            {
                OFFSET   0.000037 -41.133200  -0.000166
                CHANNELS 3 Zrotation Xrotation Yrotation
                JOINT RightToe
                {
                    OFFSET   0.000000  -6.358960  14.674500
                    CHANNELS 3 Zrotation Xrotation Yrotation
                    End Site
                    {
                        OFFSET   0.000000   0.000000   3.913200
                    }
                }
            }
        }
    }
}
MOTION
Frames: 4
Frame Time:   0.016667
  0.539823  89.401500   1.278490  -6.433080  -9.050950 -21.738900  -1.621150   6.030760  -3.047470  -2.940400  12.137600  -5.971740  -1.707520  -3.730390  -0.107391  -2.838720  -7.544310 -39.144100  -1.704850   3.407570   7.944060 -76.427400   8.690530  -7.120250  -0.749743   5.166190 -13.679400  10.066900  -4.696480  -0.638447  43.253600  39.564300 -56.475700 -33.710200   0.004377   0.002992 -11.853000   0.002343  -0.002793 -32.918200  -1.976010   3.048840 -26.976100   0.003308  -0.001980 -18.877200   0.007296  -0.000328 -30.639200  -0.759749   6.347680 -45.772900   0.000218   0.002569 -30.484800  -0.002833   0.001431 -27.913700  -4.058610   7.610490 -33.260300   0.000271   0.000402 -22.151400  -0.003630   0.004678 -32.241200  -4.623290   7.282560 -48.803300   0.000084   0.001895 -32.503000  -0.003773  -0.001352  -3.537710  -4.306050   3.378260  48.900600 -34.389200  60.541600  -7.261080 -27.699900  40.215600 -93.549200 -51.876400 -54.281600 -45.291200  33.995800  72.633800  10.632800   0.003820  -0.002363   0.316405   0.000997   0.002640   0.792301  -0.094574  -6.770290   0.652883  -0.001332   0.004868   0.457023  -0.001544   0.009542   2.794340  -0.505812 -10.244500   2.839740  -0.000672   0.002720   1.891270  -0.000528   0.011329   2.460980  -0.544944 -12.482100   2.520580   0.001591   0.002633   1.678700   0.000521   0.003093  10.209800  -2.249330 -12.292900  15.678200   0.003686   0.002311  10.441700   0.002655   0.007581   3.779860  15.413300   4.654650  -0.883920   1.526990  23.686700  -1.909890  -6.649390   6.350110  -0.000000   0.000000  -0.000000   3.149910   7.584730  -1.289470  -3.853480   6.520740  -1.727090   1.891230  -2.592090  10.818300  -0.000000   0.000000  -0.000000
  0.524044  89.402400   1.288500  -6.431490  -8.999130 -21.802100  -1.611640   5.973990  -3.101800  -2.918070  12.024900  -6.083060  -1.708310  -3.756100  -0.107825  -2.843330  -7.596060 -39.206400  -1.717750   3.481980   7.974580 -76.492900   8.693160  -7.110070  -0.746634   5.171610 -13.622200  10.067300  -4.696560  -0.629859  43.283100  39.608200 -56.511500 -33.713100   0.004445   0.003039 -11.855400   0.002402  -0.002831 -32.909900  -1.982810   3.060360 -26.969500   0.003291  -0.001983 -18.876000   0.007343  -0.000290 -30.626100  -0.760847   6.347560 -45.754300   0.000214   0.002572 -30.471800  -0.002837   0.001422 -27.913700  -4.061630   7.617990 -33.231900   0.000269   0.000403 -22.132500  -0.003629   0.004728 -32.220100  -4.624370   7.291580 -48.771100   0.000086   0.001898 -32.481500  -0.003774  -0.001314  -3.579670  -4.341490   3.364750  48.772000 -34.541100  60.630700  -7.377490 -27.798400  40.603600 -93.150300 -52.066200 -53.904500 -45.253900  34.030900  72.707700  10.784000   0.003860  -0.002381   0.392012   0.001045   0.002606   0.853326  -0.101664  -6.775090   0.703024  -0.001392   0.004851   0.492118  -0.001589   0.009585   2.833560  -0.512452 -10.245100   2.879130  -0.000741   0.002701   1.917500  -0.000572   0.011381   2.450330  -0.542048 -12.479200   2.509510   0.001584   0.002609   1.671330   0.000454   0.003117  10.223500  -2.249530 -12.289900  15.698700   0.003634   0.002313  10.455300   0.002643   0.007730   3.789690  15.386800   4.660730  -0.886512   1.525480  23.735100  -1.915050  -6.657260   6.361340  -0.000000   0.000000   0.000000   3.154450   7.552340  -1.273610  -3.840660   6.498490  -1.715860   1.889800  -2.585770  10.861600  -0.000000   0.000000  -0.000000
  0.509089  89.403200   1.297150  -6.433360  -8.947400 -21.870300  -1.601420   5.918510  -3.156530  -2.894340  11.914700  -6.195200  -1.708580  -3.779490  -0.108242  -2.845340  -7.643200 -39.268700  -1.730860   3.557960   8.005810 -76.551500   8.705530  -7.100850  -0.745082   5.174880 -13.553500  10.068100  -4.696640  -0.619860  43.310100  39.645400 -56.548700 -33.719000   0.004514   0.003087 -11.859500   0.002464  -0.002869 -32.903800  -1.988450   3.069660 -26.964900   0.003277  -0.001987 -18.875400   0.007390  -0.000253 -30.617300  -0.761944   6.347510 -45.740200   0.000209   0.002575 -30.463000  -0.002839   0.001411 -27.913400  -4.063790   7.622410 -33.211400   0.000267   0.000404 -22.118800  -0.003627   0.004779 -32.203500  -4.625490   7.296490 -48.747800   0.000089   0.001902 -32.466000  -0.003774  -0.001277  -3.615570  -4.368230   3.352550  48.671700 -34.699100  60.727000  -7.476820 -27.882800  41.003200 -92.667600 -52.282700 -53.475400 -45.258400  34.083000  72.806600  10.872500   0.003904  -0.002401   0.436299   0.001094   0.002573   0.895531  -0.106524  -6.778190   0.737685  -0.001453   0.004833   0.516377  -0.001633   0.009629   2.863440  -0.517037 -10.245200   2.909450  -0.000810   0.002681   1.937690  -0.000617   0.011433   2.440040  -0.538285 -12.458600   2.498440   0.001574   0.002586   1.663960   0.000386   0.003143  10.238000  -2.249890 -12.268600  15.719300   0.003583   0.002315  10.469000   0.002632   0.007879   3.798840  15.359900   4.676790  -0.887516   1.524060  23.775500  -1.919440  -6.666200   6.378350  -0.000000   0.000000   0.000000   3.161110   7.521760  -1.261820  -3.829610   6.473130  -1.696680   1.888280  -2.575320  10.909200  -0.000000   0.000000   0.000000
  0.493529  89.404000   1.303730  -6.439850  -8.897310 -21.941200  -1.590820   5.865430  -3.209010  -2.870060  11.809200  -6.302750  -1.708960  -3.799420  -0.108676  -2.846120  -7.683700 -39.335000  -1.743960   3.635100   8.036260 -76.598600   8.735300  -7.097310  -0.751656   5.161560 -13.472500  10.081100  -4.653500  -0.613235  43.281800  39.619700 -56.526900 -33.736900   0.004592   0.003150 -11.868600   0.002521  -0.002905 -32.914900  -1.999680   3.085680 -26.974400   0.003275  -0.001997 -18.882100   0.007440  -0.000212 -30.620100  -0.777198   6.347540 -45.746900   0.000215   0.002576 -30.467500  -0.002838   0.001395 -27.911600  -4.072220   7.637970 -33.221900   0.000269   0.000400 -22.125800  -0.003631   0.004824 -32.204700  -4.634320   7.311410 -48.752000   0.000086   0.001902 -32.468900  -0.003774  -0.001251  -3.638950  -4.376870   3.348930  48.568200 -34.891800  60.812200  -7.529330 -27.934900  41.385900 -92.137700 -52.531000 -52.946700 -45.388100  34.233200  72.975100  10.827400   0.003959  -0.002442   0.413741   0.001137   0.002534   0.894416  -0.105991  -6.664170   0.736616  -0.001516   0.004811   0.515631  -0.001677   0.009679   2.861970  -0.513235 -10.120500   2.906500  -0.000878   0.002656   1.935730  -0.000663   0.011495   2.360030  -0.517715 -12.362900   2.415630   0.001562   0.002559   1.608810   0.000316   0.003172  10.186500  -2.223190 -12.175200  15.636100   0.003529   0.002317  10.413600   0.002624   0.008031   3.807990  15.330300   4.702970  -0.884221   1.528360  23.795200  -1.927190  -6.681770   6.403910  -0.000000   0.000000   0.000000   3.176980   7.494900  -1.253320  -3.825440   6.444130  -1.677460   1.881410  -2.557440  10.963900   0.000000   0.000000  -0.000000
